{"title":"Pompeii 2014 CAM READNFO x264 AAC-420 Hit Squad","uid":9667843,"size":1111083816,"categoryP":"video","categoryS":"movies","magnet":"?xt=urn:btih:e6cfbc8ee5665371e5e4d9fa80774f32b3ed453a&amp;dn=Pompeii+2014+CAM+READNFO+x264+AAC-420+Hit+Squad&amp;tr=udp%3A%2F%2Ftracker.openbittorrent.com%3A80&amp;tr=udp%3A%2F%2Fopen.demonii.com%3A1337&amp;tr=udp%3A%2F%2Ftracker.coppersurfer.tk%3A6969&amp;tr=udp%3A%2F%2Fexodus.desync.com%3A6969","seeders":5,"leechers":3,"uploader":"xxxlavalxxx","files":-1,"time":1393406756,"description":" &lt;a href=&quot;\nhttp://www.imdb.com/title/tt1921064/&quot; rel=&quot;nofollow&quot; target=&quot;_NEW&quot;&gt;\nhttp://www.imdb.com/title/tt1921064/&lt;/a&gt;\n\n\nA slave-turned-gladiator finds himself in a race against time to save his true love, who has been betrothed to a corrupt Roman Senator. As Mount Vesuvius erupts, he must fight to save his beloved as Pompeii crumbles around him.\n\nDirector: Paul W.S. Anderson\nWriters: Janet Scott Batchler (screenplay), Lee Batchler (screenplay)\nStars: Kit Harington, Emily Browning, Kiefer Sutherland\nGenres: Action | Adventure | Drama | History | Romance\nCountry: USA | Germany | Canada\nLanguage: English\n\n\nGeneral\nComplete name                            : Pompeii 2014 CAM READNFO x264 AAC-420 Hit Squad.mp4\nFormat                                   : MPEG-4\nFormat profile                           : Base Media\nCodec ID                                 : isom\nFile size                                : 1.02 GiB\nDuration                                 : 1h 37mn\nOverall bit rate mode                    : Variable\nOverall bit rate                         : 1 494 Kbps\nEncoded date                             : UTC 2014-02-24 19:03:17\nTagged date                              : UTC 2014-02-24 19:03:17\n\nVideo\nID                                       : 1\nFormat                                   : AVC\nFormat/Info                              : Advanced Video Codec\nFormat profile                           : &lt;a class=&quot;__cf_email__&quot; href=&quot;/cdn-cgi/l/email-protection&quot; data-cfemail=&quot;da92b3bdb29a96eef4eb&quot;&gt;[email&amp;#160;protected]&lt;/a&gt;&lt;script cf-hash='f9e31' type=&quot;text/javascript&quot;&gt;\n/* &lt;![CDATA[ */!function(){try{var t=&quot;currentScript&quot;in document?document.currentScript:function(){for(var t=document.getElementsByTagName(&quot;script&quot;),e=t.length;e--;)if(t[e].getAttribute(&quot;cf-hash&quot;))return t[e]}();if(t&amp;&amp;t.previousSibling){var e,r,n,i,c=t.previousSibling,a=c.getAttribute(&quot;data-cfemail&quot;);if(a){for(e=&quot;&quot;,r=parseInt(a.substr(0,2),16),n=2;a.length-n;n+=2)i=parseInt(a.substr(n,2),16)^r,e+=String.fromCharCode(i);e=document.createTextNode(e),c.parentNode.replaceChild(e,c)}}}catch(u){}}();/* ]]&gt; */&lt;/script&gt;\nFormat settings, CABAC                   : Yes\nFormat settings, ReFrames                : 3 frames\nCodec ID                                 : avc1\nCodec ID/Info                            : Advanced Video Coding\nDuration                                 : 1h 37mn\nBit rate mode                            : Variable\nBit rate                                 : 1 399 Kbps\nMaximum bit rate                         : 40.0 Mbps\nWidth                                    : 676 pixels\nHeight                                   : 400 pixels\nDisplay aspect ratio                     : 1.690\nFrame rate mode                          : Constant\nFrame rate                               : 25.000 fps\nColor space                              : YUV\nChroma subsampling                       : 4:2:0\nBit depth                                : 8 bits\nScan type                                : Progressive\nBits/(Pixel*Frame)                       : 0.207\nStream size                              : 973 MiB (94%)\nWriting library                          : x264 core 138 r2358 9e941d1\n\nAudio\nID                                       : 2\nFormat                                   : AAC\nFormat/Info                              : Advanced Audio Codec\nFormat profile                           : LC\nCodec ID                                 : 40\nDuration                                 : 1h 37mn\nBit rate mode                            : Variable\nBit rate                                 : 91.8 Kbps\nMaximum bit rate                         : 110 Kbps\nChannel(s)                               : 2 channels\nChannel positions                        : Front: L R\nSampling rate                            : 44.1 KHz\nCompression mode                         : Lossy\nStream size                              : 63.9 MiB (6%)\nLanguage                                 : English\nEncoded date                             : UTC 2014-02-24 18:57:18\nTagged date                              : UTC 2014-02-24 19:03:35\n\n\nscreens\n &lt;a href=&quot;\nhttp://i.imgur.com/6SbpPZ3.png&quot; rel=&quot;nofollow&quot; target=&quot;_NEW&quot;&gt;\nhttp://i.imgur.com/6SbpPZ3.png&lt;/a&gt; &lt;a href=&quot;\nhttp://i.imgur.com/D1bLPT2.png&quot; rel=&quot;nofollow&quot; target=&quot;_NEW&quot;&gt;\nhttp://i.imgur.com/D1bLPT2.png&lt;/a&gt; &lt;a href=&quot;\nhttp://i.imgur.com/nokl7Dg.png&quot; rel=&quot;nofollow&quot; target=&quot;_NEW&quot;&gt;\nhttp://i.imgur.com/nokl7Dg.png&lt;/a&gt; &lt;a href=&quot;\nhttp://i.imgur.com/DKou80W.png&quot; rel=&quot;nofollow&quot; target=&quot;_NEW&quot;&gt;\nhttp://i.imgur.com/DKou80W.png&lt;/a&gt; &lt;a href=&quot;\nhttp://i.imgur.com/sLd7saE.png&quot; rel=&quot;nofollow&quot; target=&quot;_NEW&quot;&gt;\nhttp://i.imgur.com/sLd7saE.png&lt;/a&gt; &lt;a href=&quot;\nhttp://i.imgur.com/wizMoEt.png&quot; rel=&quot;nofollow&quot; target=&quot;_NEW&quot;&gt;\nhttp://i.imgur.com/wizMoEt.png&lt;/a&gt; &lt;a href=&quot;\nhttp://i.imgur.com/O0X7XD7.png&quot; rel=&quot;nofollow&quot; target=&quot;_NEW&quot;&gt;\nhttp://i.imgur.com/O0X7XD7.png&lt;/a&gt; &lt;a href=&quot;\nhttp://i.imgur.com/eFz8ddS.png&quot; rel=&quot;nofollow&quot; target=&quot;_NEW&quot;&gt;\nhttp://i.imgur.com/eFz8ddS.png&lt;/a&gt;","torrent":{"xt":"urn:btih:e6cfbc8ee5665371e5e4d9fa80774f32b3ed453a","amp;dn":"Pompeii+2014+CAM+READNFO+x264+AAC-420+Hit+Squad","amp;tr":["udp%3A%2F%2Ftracker.openbittorrent.com%3A80","udp%3A%2F%2Fopen.demonii.com%3A1337","udp%3A%2F%2Ftracker.coppersurfer.tk%3A6969","udp%3A%2F%2Fexodus.desync.com%3A6969"],"infoHash":"e6cfbc8ee5665371e5e4d9fa80774f32b3ed453a","infoHashBuffer":{"type":"Buffer","data":[230,207,188,142,229,102,83,113,229,228,217,250,128,119,79,50,179,237,69,58]},"announce":[],"urlList":[]}}